<?xml version="1.0" standalone="no"?>
<!DOCTYPE svg PUBLIC "-//W3C//DTD SVG 1.1//EN" "http://www.w3.org/Graphics/SVG/1.1/DTD/svg11.dtd" >
<svg xmlns="http://www.w3.org/2000/svg">
<metadata>Generated by IcoMoon</metadata>
<defs>
<font id="icomoon" horiz-adv-x="1024">
<font-face units-per-em="1024" ascent="960" descent="-64" />
<missing-glyph horiz-adv-x="1024" />
<glyph unicode="&#x20;" horiz-adv-x="512" d="" />
<glyph unicode="&#xe600;" glyph-name="tsab_contact" d="M455.782 684.216l-227.512 227.492c-26.061-12.667-51.497-28.703-75.653-47.124l256.031-256.020c18.412 24.146 34.447 49.582 47.135 75.653zM752.62 387.369c-26.071-12.677-51.497-28.713-75.653-47.135l256.020-256.020c18.422 24.146 34.458 49.572 47.135 75.653l-227.502 227.502zM591.462 203.233c-130.089 56.381-231.158 143.596-301.537 260.803-11.868 19.763-22.129 39.27-31.007 58.143 41.81 1.638 80.067 16.998 110.346 41.83l-261.202 261.192c-26.255-32.020-42.138-72.919-42.138-117.586 0-18.053 2.662-35.461 7.475-51.948l-3.891-0.297c0.41-5.468 11.162-135.485 96.584-279.644 76.165-128.532 227.973-292.372 521.185-355.584 26.368-14.387 56.566-22.63 88.74-22.63 44.677 0 85.565 15.872 117.586 42.148l-261.202 261.202c-22.282-27.177-36.966-60.785-40.94-97.628z" />
<glyph unicode="&#xe601;" glyph-name="pip" d="M46.080 917.33h930.13v-930.13h-930.13v930.13z" />
<glyph unicode="&#xe602;" glyph-name="play" d="M46.080 917.33v-930.13h930.13v930.13h-930.13zM347.525 214.579v479.642l393.421-239.821-393.421-239.821z" />
<glyph unicode="&#xe603;" glyph-name="radio_on" d="M512 911.391c-255.918 0-463.391-207.462-463.391-463.391 0-255.918 207.473-463.391 463.391-463.391 255.928 0 463.391 207.473 463.391 463.391 0 255.928-207.462 463.391-463.391 463.391zM512 41.626c-224.43 0-406.374 181.944-406.374 406.364 0 224.44 181.944 406.385 406.374 406.385s406.374-181.944 406.374-406.385c0.010-224.42-181.934-406.364-406.374-406.364zM791.419 448c0-154.319-125.1-279.419-279.419-279.419s-279.419 125.1-279.419 279.419c0 154.319 125.1 279.419 279.419 279.419s279.419-125.1 279.419-279.419z" />
<glyph unicode="&#xe604;" glyph-name="chevron_down" d="M512.010 201.994l-455.844 440.484 49.818 51.548 406.026-392.356 406.026 392.356 49.828-51.548z" />
<glyph unicode="&#xe605;" glyph-name="search" d="M161.843 789.709c-130.703-130.714-130.703-342.641 0-473.344 130.703-130.724 342.63-130.724 473.354 0.010 130.714 130.693 130.724 342.62 0 473.334-130.714 130.703-342.651 130.703-473.354 0zM575.099 376.443c-98.468-98.458-258.12-98.458-356.598 0-98.478 98.468-98.478 258.12 0 356.598s258.13 98.478 356.598 0c98.468-98.478 98.468-258.13 0-356.598zM719.36 314.706c-9.083-11.919-18.985-23.419-29.88-34.314-12.564-12.585-25.897-23.91-39.823-34.058l238.121-238.080 69.018 68.997-237.435 237.455z" />
<glyph unicode="&#xe606;" glyph-name="tsab_wishlist" d="M971.51 657.879h-0.317c-0.041 7.25-0.471 14.387-1.147 21.463-11.51 118.415-111.063 210.985-232.274 210.985-64.891 0-123.556-26.573-165.857-69.417-30.904-31.273-53.084-71.219-62.505-115.886-9.216 43.694-30.618 82.862-60.467 113.828-42.435 44.063-101.949 71.475-167.895 71.475-118.815 0-216.801-88.975-231.465-204.052-1.178-9.308-1.905-18.78-1.956-28.396h-0.287c0 0-6.861-65.044 11.028-146.831 10.322-28.897 24.893-58.020 43.919-86.815 108.411-164.055 263.332-282.317 413.358-418.56 129.434 131.953 260.874 251.136 374.2 385.577 32.092 38.031 55.173 77.302 69.878 116.429 18.831 83.354 11.786 150.2 11.786 150.2z" />
<glyph unicode="&#xe607;" glyph-name="bag" d="M506.86 913.428c-102.124 0-184.914-127.601-184.914-285.010h-174.285v-637.655h718.377v637.655h-174.254c0 157.409-82.801 285.010-184.924 285.010zM800.461 562.821v-506.47h-587.192v506.47h174.725c-2.232 38.83-1.454 71.25 0.922 97.864 0.502 5.96 1.126 11.796 1.915 17.531 7.823 61.809 23.982 86.651 23.982 86.651l0.010-0.010c23.542 51.855 58.9 82.985 92.047 82.985 56.443 0 119.306-90.112 119.306-219.423h-172.861v-65.597h347.146z" />
<glyph unicode="&#xe608;" glyph-name="tsab_bag" d="M840.049 620.995h-97.382c1.567 12.104 2.427 24.453 2.427 37.028 0 143.012-105.329 259.369-234.803 259.369s-234.803-116.347-234.803-259.369c0-12.575 0.86-24.934 2.427-37.028h-93.962c-15.944 0-28.979-13.046-28.979-28.979v-575.846c0-15.944 13.036-28.969 28.979-28.969h656.087c15.933 0 28.969 13.025 28.969 28.969v575.846c0.010 15.933-13.025 28.979-28.959 28.979zM357.417 658.022c0 97.843 68.577 177.449 152.883 177.449s152.883-79.596 152.883-177.449c0-12.708-1.208-25.078-3.4-37.028h-298.967c-2.191 11.96-3.4 24.33-3.4 37.028z" />
<glyph unicode="&#xe609;" glyph-name="email_friend" d="M511.427 253.686l-174.684 174.725-274.811-274.821h899l-274.801 274.821zM960.932 753.336h-899l449.495-449.485zM709.448 455.987l254.822-254.833v509.665zM57.149 710.81v-509.655l254.812 254.812z" />
<glyph unicode="&#xe60a;" glyph-name="contact" d="M722.002 419.338l-19.702-9.544c-22.569-10.916-45.076-24.863-66.898-41.462l-3.482-2.662c-2.765-2.058-5.417-4.096-7.977-6.103l-17.736-15.165c-5.478-5.161-10.23-10.179-14.275-15.124l-76.646 78.244 0.348 0.379-47.421 47.268-0.287-0.348-74.803 73.277c4.874 4.004 9.851 8.694 14.95 14.090l16.783 19.753c1.454 1.864 2.908 3.789 4.383 5.755l2.929 3.85c16.599 21.821 30.556 44.329 41.482 66.888l9.533 19.702-216.535 215.839-19.63-9.513c-33.362-16.159-61.583-34.57-84.265-54.958l-23.91-23.859c-3.697-4.516-7.383-9.605-10.783-14.797-14.746-21.094-19.681-37.396-21.094-43.284-6.154-18.575-9.257-37.827-9.226-57.262 0.051-28.979 7.137-57.876 20.49-83.579l0.707-1.372c19.917-38.687 90.255-168.141 196.106-286.362l21.33-23.337 26.993-24.945c117.985-105.482 247.142-175.677 285.788-195.604l1.464-0.737c25.702-13.363 54.589-20.439 83.569-20.5h0.215c19.313 0 38.441 3.103 56.924 9.196 5.755 1.382 22.057 6.216 42.588 20.603 5.919 3.86 11.018 7.557 15.596 11.305l17.541 17.541-43.151 43.397c-4.608-4.874-9.288-9.329-14.029-13.343l-5.089-4.444c-1.546-1.075-3.277-2.263-5.274-3.564-6.175-4.321-11.387-7.137-15.155-8.919l-10.701-3.697c-12.749-4.403-25.948-6.636-39.25-6.636v-30.72l-0.113 30.72c-19.456 0.041-38.083 4.618-55.306 13.558l-1.679 0.86c-39.363 20.275-176.916 95.119-294.728 206.797l-0.932 0.881-1.229 1.3c-111.831 117.944-186.604 255.457-206.858 294.789l-0.829 1.597c-8.96 17.244-13.527 35.86-13.558 55.316-0.020 13.343 2.212 26.593 6.636 39.383l3.42 9.994c1.833 4.004 4.854 9.677 9.697 16.62 0.85 1.28 1.649 2.488 2.437 3.615l5.059 5.97c16.374 19.343 39.25 37.202 68.188 53.238l153.62-153.108c-3.953-6.861-8.253-13.722-12.861-20.541l-12.564-17.326c-13.537-18.678-23.071-28.129-28.856-32.84l-7.148-4.813c-5.386-3.625-10.834-6.738-16.189-9.257l-40.028-18.801 158.075-154.849 157.757-160.963 18.79 40.059c2.519 5.356 5.632 10.803 9.236 16.159l4.7 7.025c4.659 5.755 14.121 15.34 32.963 28.979l16.374 11.94c7.137 4.864 14.305 9.359 21.494 13.496l92.662-92.969 0.174 0.164 104.888-105.974c7.148 11.653 14.172 24.259 20.623 37.581l9.503 19.62-215.818 216.535z" />
<glyph unicode="&#xe60b;" glyph-name="wishlist" d="M704.43 889.18c-75.305 0-143.401-30.812-192.42-80.486-49.039 49.674-117.125 80.486-192.44 80.486-149.33 0-270.397-121.068-270.397-270.408 0-44.749 10.926-86.897 30.157-124.058 44.81-102.062 156.908-263.649 431.698-487.25v-0.010l0.020-0.010c0.256-0.215 0.502-0.41 0.758-0.635v0.215l0.379-0.215c16.62 13.517 32.625 26.788 48.056 39.854-29.676 25.416-69.263 60.887-101.775 90.337-201.277 177.797-285.153 305.101-319.713 383.816l-0.829 1.884-0.952 1.843c-15.196 29.368-22.897 61.061-22.897 94.228 0 113.316 92.18 205.507 205.496 205.507 55.357 0 107.315-21.729 146.258-61.174l46.182-46.807 46.182 46.807c38.943 39.444 90.88 61.174 146.237 61.174 113.316 0 205.496-92.18 205.496-205.507 0-33.167-7.7-64.86-22.897-94.228l-0.942-1.843-0.84-1.884c-34.478-78.531-117.996-205.363-318.095-382.372l44.759-47.063c203.756 180.613 293.765 314.511 332.759 403.333 19.241 37.161 30.157 79.319 30.157 124.058 0 149.34-121.057 270.408-270.397 270.408z" />
<glyph unicode="&#xe60c;" glyph-name="my_account" d="M506.88 408.064c138.24 0 249.856 111.616 249.856 249.856s-113.664 248.832-251.904 248.832c-136.192 0-247.808-111.616-247.808-249.856s111.616-248.832 249.856-248.832zM504.832 844.288c102.4 0 186.368-83.968 186.368-186.368 0-103.424-82.944-186.368-186.368-186.368-102.4 0-186.368 83.968-186.368 186.368s84.992 186.368 186.368 186.368zM718.848 310.784c0 0 0 0 0 0s-23.552 14.336-71.68 32.768c-37.888-33.792-87.040-53.248-141.312-53.248s-104.448 19.456-141.312 53.248c-25.6-9.216-69.632-30.72-69.632-30.72-111.616-66.56-188.416-180.224-201.728-315.392h826.368c-14.336 132.096-91.136 246.784-200.704 313.344zM347.136 263.68c45.056-29.696 99.328-47.104 158.72-47.104s114.688 17.408 159.744 48.128c92.16-40.96 158.72-115.712 169.984-203.776h-655.36c11.264 87.040 74.752 160.768 166.912 202.752z" />
<glyph unicode="&#xe60d;" glyph-name="tsab_my_account" d="M494.479 359.895c-152.402 0-276.388 123.976-276.388 276.378s123.986 276.398 276.388 276.398c152.412 0 276.408-123.986 276.408-276.398 0-152.392-123.996-276.378-276.408-276.378zM494.479 851.231c-118.518 0-214.948-96.43-214.948-214.958 0-118.518 96.43-214.938 214.948-214.938 118.528 0 214.968 96.42 214.968 214.938 0 118.528-96.44 214.958-214.968 214.958zM650.824 304.558c-35.185-48.23-92.068-79.585-156.344-79.585-64.236 0-121.139 31.355-156.314 79.585-117.443-57.569-198.523-177.92-199.393-317.358h711.444c-0.881 139.438-81.961 259.789-199.393 317.358z" />
<glyph unicode="&#xe60e;" glyph-name="x" d="M53.133 748.043l168.013 168.013 761.324-761.324-168.013-168.013-761.324 761.324zM214.314-6.477l-168.013 168.013 761.324 761.324 168.013-168.013-761.324-761.324z" />
<glyph unicode="&#xe60f;" glyph-name="tick" d="M123.382 469.32l218.061-225.249 562.729 566.077 68.198-65.618-630.917-637.829-292.813 287.212 74.742 75.407z" />
<glyph unicode="&#xe610;" glyph-name="chevron_left" d="M265.984 448.020l440.484 455.854 51.548-49.828-392.356-406.026 392.356-406.026-51.548-49.828z" />
<glyph unicode="&#xe611;" glyph-name="chevron_right" d="M758.016 448l-440.484-455.854-51.548 49.828 392.356 406.026-392.356 406.016 51.548 49.828z" />
<glyph unicode="&#xe612;" glyph-name="chevron_up" d="M512 694.016l455.844-440.484-49.828-51.548-406.016 392.356-406.026-392.356-49.818 51.548z" />
<glyph unicode="&#xe613;" glyph-name="tsab_search" d="M626.156 340.265c-130.734-130.724-343.429-130.734-474.132-0.020s-130.693 343.409 0.031 474.132c130.703 130.693 343.378 130.693 474.092-0.010 130.703-130.714 130.714-343.388 0.010-474.102zM202.609 763.812c-102.84-102.84-102.851-270.172-0.010-373.002 102.83-102.83 270.152-102.82 373.002 0.020 102.82 102.82 102.81 270.131-0.010 372.961-102.84 102.84-270.152 102.851-372.982 0.020zM631.050 322.785c-19.415-19.415-19.415-51.139 0.010-70.564l241.275-241.275c19.405-19.415 51.149-19.415 70.543-0.010l12.575 12.575c19.415 19.415 19.405 51.159-0.010 70.574l-241.265 241.254c-19.425 19.425-51.159 19.425-70.564 0.020l-12.564-12.575z" />
<glyph unicode="&#xe614;" glyph-name="tsab_stores" d="M799.089 634.921c-5.693 104.509-68.413 193.679-157.532 237.384-1.157 0.573-2.335 1.147-3.502 1.71-1.884 0.881-3.686 1.874-5.601 2.734-5.919 2.632-11.96 5.007-18.094 7.25-0.215 0.072-0.389 0.133-0.594 0.215-4.076 1.485-8.202 2.888-12.36 4.188-0.399 0.113-0.778 0.225-1.167 0.348-4.035 1.239-8.069 2.396-12.165 3.451-0.502 0.133-1.014 0.246-1.495 0.369-4.045 1.014-8.079 1.966-12.175 2.806-0.553 0.113-1.106 0.215-1.659 0.317-4.055 0.809-8.161 1.567-12.278 2.191-0.614 0.092-1.219 0.154-1.823 0.236-4.076 0.604-8.192 1.147-12.339 1.567-0.799 0.082-1.618 0.123-2.437 0.205-3.942 0.358-7.895 0.696-11.868 0.901-2.232 0.113-4.485 0.123-6.707 0.184-2.499 0.061-4.997 0.205-7.537 0.205-0.082 0-0.154 0-0.215 0s-0.143 0-0.215 0c-2.519 0-5.018-0.133-7.516-0.205-2.263-0.061-4.495-0.072-6.728-0.184-3.994-0.205-7.926-0.543-11.878-0.901-0.809-0.082-1.628-0.113-2.427-0.205-4.137-0.42-8.253-0.973-12.339-1.567-0.604-0.082-1.198-0.143-1.823-0.236-4.116-0.635-8.202-1.382-12.257-2.191-0.563-0.113-1.106-0.205-1.679-0.317-4.076-0.84-8.141-1.792-12.165-2.806-0.502-0.123-1.004-0.236-1.495-0.369-4.096-1.055-8.161-2.212-12.175-3.451-0.379-0.123-0.758-0.236-1.157-0.348-4.157-1.3-8.284-2.703-12.36-4.188-0.205-0.072-0.399-0.143-0.594-0.215-6.134-2.243-12.165-4.618-18.115-7.25-1.905-0.85-3.697-1.843-5.581-2.734-1.178-0.563-2.345-1.137-3.502-1.71-89.129-43.715-151.869-132.874-157.563-237.384 0.041-2.017 0.154-4.086 0.225-6.134-0.102-3.133-0.225-6.246-0.225-9.431 0-31.222 5.151-61.235 14.531-89.324 0.338-1.372 0.625-2.734 0.963-4.116 29.983-123.658 107.203-293.458 265.861-531.098h0.44c158.659 237.64 235.878 407.45 265.861 531.098 0.358 1.382 0.635 2.744 0.963 4.116 9.38 28.078 14.541 58.092 14.541 89.324 0 3.185-0.143 6.298-0.236 9.431 0.041 2.048 0.154 4.116 0.195 6.134zM517.509 405.965c-115.569 0-209.275 88.084-209.275 196.731 0 108.657 93.686 196.741 209.275 196.741s209.275-88.084 209.275-196.741c0-108.657-93.696-196.731-209.275-196.731z" />
<glyph unicode="&#xe615;" glyph-name="plus" d="M971.735 509.368h-404.111v404.122h-117.217v-404.122h-404.111v-117.187h404.111v-404.132h117.217v404.132h404.111z" />
<glyph unicode="&#xe616;" glyph-name="stores" d="M832.184 588.943c0 178.237-144.486 322.744-322.755 322.744-178.237 0-322.744-144.507-322.744-322.744 0-4.045 0.246-8.028 0.399-12.032-1.669-29.266 0.635-227.523 318.372-592.589 14.131 16.097 27.525 31.795 40.407 47.196-116.931 135.311-187.064 244.47-229.1 325.663-54.456 109.455-66.365 181.289-68.393 215.224 0.031 0.748 0.061 1.28 0.061 1.311l-0.143 0.010c-0.543 10.076-0.276 16.835-0.031 19.804 2.468 141.957 118.641 256.707 261.181 256.707 142.551 0 258.744-114.76 261.192-256.717 0.174-1.987 0.358-6.042 0.287-11.704l-0.44-0.051c0.205-1.638 9.605-154.583-225.188-454.195 12.81-15.677 26.173-31.683 40.325-48.159 235.561 296.786 247.101 464.486 246.313 501.729 0.061 2.611 0.256 5.181 0.256 7.803zM510.403 713.605c68.639 0 124.477-55.849 124.477-124.488s-55.839-124.477-124.477-124.477-124.477 55.839-124.477 124.477 55.839 124.488 124.477 124.488zM510.403 775.045c-102.676 0-185.917-83.241-185.917-185.917s83.241-185.917 185.917-185.917 185.917 83.231 185.917 185.907-83.241 185.928-185.917 185.928v0z" />
<glyph unicode="&#xe617;" glyph-name="radio_off" d="M512 911.391c-255.918 0-463.391-207.462-463.391-463.391 0-255.918 207.473-463.391 463.391-463.391 255.928 0 463.391 207.473 463.391 463.391 0 255.928-207.462 463.391-463.391 463.391zM512 41.626c-224.43 0-406.374 181.944-406.374 406.364 0 224.44 181.944 406.385 406.374 406.385s406.374-181.944 406.374-406.385c0.010-224.42-181.934-406.364-406.374-406.364z" />
<glyph unicode="&#xe618;" glyph-name="check_on" d="M46.080 917.33v-930.13h930.13v930.13h-930.13zM367.555 151.316l-250.194 245.412 63.867 64.43 186.317-192.461 480.809 483.666 58.276-56.064-539.075-544.983z" />
<glyph unicode="&#xe619;" glyph-name="minus" d="M46.295 507.648h925.44v-117.187h-925.44v117.187z" />
<glyph unicode="&#xe61a;" glyph-name="pip_off" d="M884.050 825.17v-745.81h-745.81v745.81h745.81zM976.21 917.33h-930.13v-930.13h930.13v930.13z" />
<glyph unicode="&#xe61b;" glyph-name="check_off" d="M921.6 915.2h-875.305v-921.6h926.505v921.6h-51.2zM921.6 44.8h-824.105v819.2h824.105v-819.2z" />
<glyph unicode="&#xe61c;" glyph-name="chevron_left_thin" d="M276.193 458.23l440.484 455.844 31.068-29.348-412.826-426.496 412.826-426.506-31.068-29.348z" />
<glyph unicode="&#xe61d;" glyph-name="chevron_right_thin" d="M747.756 458.22l-440.484-455.844-31.068 29.348 412.836 426.496-412.836 426.506 31.068 29.348z" />
<glyph unicode="&#xe61e;" glyph-name="chevron_down_thin" d="M512 222.464l-455.844 440.484 29.338 31.068 426.506-412.836 426.496 412.836 29.348-31.068z" />
<glyph unicode="&#xe61f;" glyph-name="chevron_up_thin" d="M512 694.016l455.844-440.484-29.348-31.068-426.496 412.836-426.506-412.836-29.338 31.068z" />
<glyph unicode="&#xe620;" glyph-name="info" d="M503.808-5.632c-252.928 0-458.752 205.824-458.752 458.752s205.824 458.752 458.752 458.752c252.928 0 458.752-205.824 458.752-458.752s-205.824-458.752-458.752-458.752zM503.808 840.192c-212.992 0-387.072-173.056-387.072-387.072 0-212.992 173.056-387.072 387.072-387.072s387.072 174.080 387.072 387.072c0 212.992-174.080 387.072-387.072 387.072zM460.8 356.864v139.264h28.672c44.032 0 69.632 26.624 69.632 71.68 0 40.96-18.432 63.488-52.224 63.488-34.816 0-53.248-21.504-53.248-61.44 0-3.072 1.024-7.168 1.024-10.24h-92.16c0 3.072 0 7.168 0 10.24 0 79.872 59.392 133.12 149.504 133.12 87.040 0 142.336-52.224 142.336-140.288 0-67.584-36.864-109.568-104.448-123.904v-83.968h-89.088zM505.856 316.928c30.72 0 56.32-23.552 56.32-55.296 0-30.72-24.576-56.32-56.32-56.32s-56.32 25.6-56.32 56.32c0 30.72 25.6 55.296 56.32 55.296z" />
<glyph unicode="&#xe621;" glyph-name="plane" d="M378.88-9.728c-1.024 0-2.048 0-4.096 0-6.144 1.024-11.264 5.12-14.336 10.24l-103.424 182.272-128 66.56 24.576 33.792 126.976-66.56c3.072-2.048 6.144-4.096 8.192-8.192l95.232-165.888 38.912 31.744-45.056 158.72c-2.048 8.192 0 16.384 7.168 21.504l154.624 128c4.096 4.096 10.24 5.12 15.36 4.096s10.24-4.096 14.336-8.192l211.968-288.768 63.488 59.392-149.504 358.4c-3.072 8.192-1.024 17.408 5.12 23.552 60.416 52.224 218.112 204.8 221.184 284.672 0 10.24-2.048 18.432-8.192 25.6-6.144 6.144-14.336 8.192-25.6 8.192-78.848-4.096-231.424-161.792-283.648-222.208-6.144-7.168-15.36-9.216-23.552-5.12l-359.424 148.48-58.368-63.488 288.768-211.968c4.096-3.072 7.168-8.192 8.192-14.336 1.024-5.12-1.024-11.264-4.096-15.36l-129.024-154.624c-5.12-6.144-13.312-9.216-21.504-6.144l-158.72 45.056-62.464-76.8-36.864 19.456 76.8 93.184c5.12 6.144 13.312 9.216 21.504 7.168l158.72-45.056 105.472 126.976-289.792 212.992c-5.12 3.072-8.192 9.216-8.192 14.336-1.024 6.144 1.024 11.264 5.12 16.384l83.968 90.112c6.144 6.144 15.36 8.192 22.528 5.12l360.448-148.48c44.032 49.152 202.752 220.16 304.128 224.256 20.48 1.024 38.912-5.12 53.248-17.408 0-1.024 1.024-1.024 1.024-2.048l2.048-2.048c1.024-1.024 1.024-1.024 2.048-2.048 12.288-14.336 18.432-31.744 17.408-53.248-2.048-49.152-43.008-116.736-120.832-202.752-41.984-46.080-83.968-83.968-103.424-101.376l149.504-358.4c3.072-8.192 1.024-17.408-5.12-22.528l-91.136-83.968c-4.096-4.096-10.24-6.144-16.384-5.12s-11.264 3.072-14.336 8.192l-212.992 289.792-128-106.496 45.056-158.72c2.048-8.192 0-16.384-7.168-21.504l-67.584-55.296c-3.072-2.048-8.192-4.096-12.288-4.096z" />
<glyph unicode="&#xe622;" glyph-name="burger" d="M78.848 783.872h817.152v-111.616h-817.152v111.616zM78.848 529.92h817.152v-111.616h-817.152v111.616zM78.848 275.968h817.152v-111.616h-817.152v111.616z" />
<glyph unicode="&#xe623;" glyph-name="truck" d="M771.072 341.504c-53.248 0-95.232-43.008-95.232-95.232 0-53.248 43.008-95.232 95.232-95.232s95.232 43.008 95.232 95.232c1.024 52.224-41.984 95.232-95.232 95.232zM771.072 186.88c-32.768 0-59.392 26.624-59.392 59.392s26.624 59.392 59.392 59.392 59.392-26.624 59.392-59.392c0-32.768-26.624-59.392-59.392-59.392zM629.76 660.992h-155.648v-152.576h190.464l-34.816 152.576zM603.136 626.176l17.408-82.944h-111.616v82.944h94.208zM279.552 341.504c-53.248 0-95.232-43.008-95.232-95.232 0-53.248 43.008-95.232 95.232-95.232s95.232 43.008 95.232 96.256c0 51.2-43.008 94.208-95.232 94.208zM279.552 186.88c-32.768 0-59.392 26.624-59.392 59.392s26.624 59.392 59.392 59.392 59.392-26.624 59.392-59.392c0-32.768-26.624-59.392-59.392-59.392zM882.688 543.232h-109.568l-37.888 168.96-6.144 22.528h-704.512v-414.72h34.816v379.904h643.072l43.008-189.44 1.024-3.072h136.192c44.032 0 79.872-35.84 79.872-79.872v-150.528h-33.792c-4.096 37.888-21.504 72.704-50.176 98.304-29.696 26.624-67.584 41.984-106.496 41.984-39.936 0-77.824-15.36-106.496-41.984-28.672-25.6-46.080-60.416-50.176-98.304h-178.176c-4.096 37.888-21.504 72.704-50.176 98.304-29.696 26.624-67.584 41.984-106.496 41.984s-77.824-15.36-106.496-41.984c-28.672-25.6-46.080-60.416-50.176-98.304h-99.328v-34.816h130.048v4.096c0 2.048 0 4.096 0 6.144s0 4.096 0 5.12c0 69.632 56.32 125.952 125.952 125.952s125.952-56.32 125.952-125.952c0-4.096 0-8.192-1.024-11.264l-1.024-5.12h242.688v4.096c0 2.048 0 4.096 0 6.144s0 4.096 0 5.12c0 69.632 56.32 125.952 125.952 125.952s125.952-56.32 125.952-125.952c0-4.096 0-8.192-1.024-11.264l-1.024-5.12h102.4v188.416c-2.048 61.44-53.248 113.664-116.736 114.688z" />
<glyph unicode="&#xe900;" glyph-name="bluebird_returns" d="M224.256 245.248c0-39.022-31.634-70.656-70.656-70.656s-70.656 31.634-70.656 70.656c0 39.022 31.634 70.656 70.656 70.656s70.656-31.634 70.656-70.656zM841.728 245.248c0-39.022-31.634-70.656-70.656-70.656s-70.656 31.634-70.656 70.656c0 39.022 31.634 70.656 70.656 70.656s70.656-31.634 70.656-70.656zM844.8 689.664h-544.768c-26.624 0-48.128-21.504-48.128-48.128v-144.384c0-7.168-6.144-12.288-12.288-12.288h-134.144c-33.792 0-61.44-27.648-61.44-61.44v-114.688c0-1.024 1.024-1.024 1.024-1.024h14.336c0 0 1.024 0 1.024 1.024 22.528 30.72 59.392 50.176 101.376 47.104 50.176-4.096 91.136-41.984 100.352-91.136 2.048-10.24 2.048-19.456 2.048-28.672 0-1.024 1.024-1.024 1.024-1.024h8.192c0 0 0 0 0 0h381.952c1.024 0 1.024 1.024 1.024 1.024 0 3.072 0 6.144 0 10.24 0 62.464 50.176 112.64 112.64 112.64s112.64-50.176 112.64-112.64c0-5.12 0-9.216-1.024-14.336 0-1.024 0-1.024 1.024-1.024h77.824c1.024 0 1.024 1.024 1.024 1.024v343.040c1.024 62.464-51.2 114.688-115.712 114.688zM552.96 503.296c0-8.192-7.168-15.36-15.36-15.36h-175.104c-8.192 0-15.36 7.168-15.36 15.36v80.896c0 14.336 11.264 25.6 25.6 25.6h104.448c41.984 0 76.8-33.792 76.8-76.8v-29.696z" />
<glyph unicode="&#xe901;" glyph-name="bluebird_truck" d="M921.6 245.248c0-39.022-31.634-70.656-70.656-70.656s-70.656 31.634-70.656 70.656c0 39.022 31.634 70.656 70.656 70.656s70.656-31.634 70.656-70.656zM304.128 245.248c0-39.022-31.634-70.656-70.656-70.656s-70.656 31.634-70.656 70.656c0 39.022 31.634 70.656 70.656 70.656s70.656-31.634 70.656-70.656zM43.008 573.952v-343.040c0-1.024 1.024-1.024 1.024-1.024h77.824c1.024 0 1.024 1.024 1.024 1.024-1.024 5.12-1.024 9.216-1.024 14.336 0 62.464 50.176 112.64 112.64 112.64s112.64-50.176 112.64-112.64c0-3.072 0-6.144 0-10.24 0-1.024 1.024-1.024 1.024-1.024h381.952c0 0 0 0 0 0h8.192c1.024 0 1.024 1.024 1.024 1.024-1.024 9.216 0 18.432 2.048 28.672 9.216 49.152 51.2 87.040 100.352 91.136 41.984 4.096 78.848-15.36 101.376-47.104 0 0 1.024-1.024 1.024-1.024h14.336c1.024 0 1.024 1.024 1.024 1.024v114.688c0 33.792-27.648 61.44-61.44 61.44h-134.144c-7.168 0-12.288 6.144-12.288 12.288v144.384c0 26.624-21.504 48.128-48.128 48.128h-544.768c-63.488 1.024-115.712-51.2-115.712-114.688zM451.584 534.016c0 41.984 33.792 76.8 76.8 76.8h104.448c14.336 0 25.6-11.264 25.6-25.6v-80.896c0-8.192-7.168-15.36-15.36-15.36h-175.104c-8.192 0-15.36 7.168-15.36 15.36v29.696z" />
<glyph unicode="&#xf099;" glyph-name="twitter" horiz-adv-x="951" d="M925.714 717.714q-38.286-56-92.571-95.429 0.571-8 0.571-24 0-74.286-21.714-148.286t-66-142-105.429-120.286-147.429-83.429-184.571-31.143q-154.857 0-283.429 82.857 20-2.286 44.571-2.286 128.571 0 229.143 78.857-60 1.143-107.429 36.857t-65.143 91.143q18.857-2.857 34.857-2.857 24.571 0 48.571 6.286-64 13.143-106 63.714t-42 117.429v2.286q38.857-21.714 83.429-23.429-37.714 25.143-60 65.714t-22.286 88q0 50.286 25.143 93.143 69.143-85.143 168.286-136.286t212.286-56.857q-4.571 21.714-4.571 42.286 0 76.571 54 130.571t130.571 54q80 0 134.857-58.286 62.286 12 117.143 44.571-21.143-65.714-81.143-101.714 53.143 5.714 106.286 28.571z" />
<glyph unicode="&#xf09a;" glyph-name="facebook" horiz-adv-x="585" d="M548 944v-150.857h-89.714q-49.143 0-66.286-20.571t-17.143-61.714v-108h167.429l-22.286-169.143h-145.143v-433.714h-174.857v433.714h-145.714v169.143h145.714v124.571q0 106.286 59.429 164.857t158.286 58.571q84 0 130.286-6.857z" />
<glyph unicode="&#xf0d2;" glyph-name="pinterest" d="M877.714 438.857q0-119.429-58.857-220.286t-159.714-159.714-220.286-58.857q-63.429 0-124.571 18.286 33.714 53.143 44.571 93.714 5.143 19.429 30.857 120.571 11.429-22.286 41.714-38.571t65.143-16.286q69.143 0 123.429 39.143t84 107.714 29.714 154.286q0 65.143-34 122.286t-98.571 93.143-145.714 36q-60 0-112-16.571t-88.286-44-62.286-63.143-38.286-74-12.286-76.571q0-59.429 22.857-104.571t66.857-63.429q17.143-6.857 21.714 11.429 1.143 4 4.571 17.714t4.571 17.143q3.429 13.143-6.286 24.571-29.143 34.857-29.143 86.286 0 86.286 59.714 148.286t156.286 62q86.286 0 134.571-46.857t48.286-121.714q0-97.143-39.143-165.143t-100.286-68q-34.857 0-56 24.857t-13.143 59.714q4.571 20 15.143 53.429t17.143 58.857 6.571 43.143q0 28.571-15.429 47.429t-44 18.857q-35.429 0-60-32.571t-24.571-81.143q0-41.714 14.286-69.714l-56.571-238.857q-9.714-40-7.429-101.143-117.714 52-190.286 160.571t-72.571 241.714q0 119.429 58.857 220.286t159.714 159.714 220.286 58.857 220.286-58.857 159.714-159.714 58.857-220.286z" />
<glyph unicode="&#xf0d5;" glyph-name="google-plus" horiz-adv-x="951" d="M420 496q0-20.571 18.286-40.286t44.286-38.857 51.714-42 44-59.429 18.286-81.143q0-51.429-27.429-98.857-41.143-69.714-120.571-102.571t-170.286-32.857q-75.429 0-140.857 23.714t-98 78.571q-21.143 34.286-21.143 74.857 0 46.286 25.429 85.714t67.714 65.714q74.857 46.857 230.857 57.143-18.286 24-27.143 42.286t-8.857 41.714q0 20.571 12 48.571-26.286-2.286-38.857-2.286-84.571 0-142.571 55.143t-58 139.714q0 46.857 20.571 90.857t56.571 74.857q44 37.714 104.286 56t124.286 18.286h238.857l-78.857-50.286h-74.857q42.286-36 64-76t21.714-91.429q0-41.143-14-74t-33.714-53.143-39.714-37.143-34-35.143-14-37.714zM336.571 550.857q21.714 0 44.571 9.429t37.714 24.857q30.286 32.571 30.286 90.857 0 33.143-9.714 71.429t-27.714 74-48.286 59.143-66.857 23.429q-24 0-47.143-11.143t-37.429-30q-26.857-33.714-26.857-91.429 0-26.286 5.714-55.714t18-58.857 29.714-52.857 42.857-38.286 55.143-14.857zM337.714 52q33.143 0 63.714 7.429t56.571 22.286 41.714 41.714 15.714 62.286q0 14.286-4 28t-8.286 24-15.429 23.714-16.857 20-22 19.714-20.857 16.571-23.714 17.143-20.857 14.857q-9.143 1.143-27.429 1.143-30.286 0-60-4t-61.429-14.286-55.429-26.286-39.143-42.571-15.429-60.286q0-40 20-70.571t52.286-47.429 68-25.143 72.857-8.286zM800.571 552.571h121.714v-61.714h-121.714v-125.143h-60v125.143h-121.143v61.714h121.143v124h60v-124z" />
<glyph unicode="&#xf167;" glyph-name="youtube" d="M554.857 240v-120.571q0-38.286-22.286-38.286-13.143 0-25.714 12.571v172q12.571 12.571 25.714 12.571 22.286 0 22.286-38.286zM748 239.428v-26.286h-51.429v26.286q0 38.857 25.714 38.857t25.714-38.857zM196 364h61.143v53.714h-178.286v-53.714h60v-325.143h57.143v325.143zM360.571 38.857h50.857v282.286h-50.857v-216q-17.143-24-32.571-24-10.286 0-12 12-0.571 1.714-0.571 20v208h-50.857v-223.429q0-28 4.571-41.714 6.857-21.143 33.143-21.143 27.429 0 58.286 34.857v-30.857zM605.714 123.428v112.571q0 41.714-5.143 56.571-9.714 32-40.571 32-28.571 0-53.143-30.857v124h-50.857v-378.857h50.857v27.429q25.714-31.429 53.143-31.429 30.857 0 40.571 31.429 5.143 15.429 5.143 57.143zM798.857 129.143v7.429h-52q0-29.143-1.143-34.857-4-20.571-22.857-20.571-26.286 0-26.286 39.429v49.714h102.286v58.857q0 45.143-15.429 66.286-22.286 29.143-60.571 29.143-38.857 0-61.143-29.143-16-21.143-16-66.286v-98.857q0-45.143 16.571-66.286 22.286-29.143 61.714-29.143 41.143 0 61.714 30.286 10.286 15.429 12 30.857 1.143 5.143 1.143 33.143zM451.429 650.857v120q0 39.429-24.571 39.429t-24.571-39.429v-120q0-40 24.571-40t24.571 40zM862.286 221.714q0-133.714-14.857-200-8-33.714-33.143-56.571t-58.286-26.286q-105.143-12-317.143-12t-317.143 12q-33.143 3.429-58.571 26.286t-32.857 56.571q-14.857 64-14.857 200 0 133.714 14.857 200 8 33.714 33.143 56.571t58.857 26.857q104.571 11.429 316.571 11.429t317.143-11.429q33.143-4 58.571-26.857t32.857-56.571q14.857-64 14.857-200zM292 950.857h58.286l-69.143-228v-154.857h-57.143v154.857q-8 42.286-34.857 121.143-21.143 58.857-37.143 106.857h60.571l40.571-150.286zM503.429 760.571v-100q0-46.286-16-67.429-21.143-29.143-60.571-29.143-38.286 0-60 29.143-16 21.714-16 67.429v100q0 45.714 16 66.857 21.714 29.143 60 29.143 39.429 0 60.571-29.143 16-21.143 16-66.857zM694.857 853.143v-285.143h-52v31.429q-30.286-35.429-58.857-35.429-26.286 0-33.714 21.143-4.571 13.714-4.571 42.857v225.143h52v-209.714q0-18.857 0.571-20 1.714-12.571 12-12.571 15.429 0 32.571 24.571v217.714h52z" />
<glyph unicode="&#xf16d;" glyph-name="instagram" d="M929.28 864.063c-23.132 23.173-50.903 34.734-83.241 34.734h-485.908v-202.281h-51.21v202.281h-30.72v-202.281h-51.21v202.281h-30.72v-202.281h-51.2v201.011c-25.149-3.42-47.278-14.479-66.232-33.464-23.173-23.132-34.734-50.883-34.734-83.241v-683.919c0-32.338 11.561-60.119 34.734-83.261 23.132-23.163 50.903-34.724 83.241-34.724h683.95c32.338 0 60.109 11.561 83.241 34.724 23.142 23.142 34.744 50.924 34.744 83.261v683.919c0.010 32.358-11.592 60.109-34.734 83.241zM374.426 567.328c36.137 34.918 79.565 52.388 130.243 52.388 51.128 0.031 94.7-17.428 130.857-52.388s54.2-77.189 54.2-126.689c0-49.51-18.043-91.73-54.2-126.669-36.157-34.959-79.729-52.398-130.857-52.398-50.678 0-94.095 17.439-130.243 52.398-36.116 34.939-54.2 77.158-54.2 126.669 0 49.531 18.084 91.75 54.2 126.689zM859.812 121.437v-0.041c0-10.363-3.594-19.077-10.783-26.040-7.178-7.004-15.79-10.445-25.754-10.445h-640.236c-10.404-0.082-19.087 3.441-26.051 10.445s-10.476 15.677-10.476 26.040v388.076h84.449c-7.977-25.149-11.981-51.313-11.981-78.438 0-76.657 27.955-142.060 83.845-196.096 55.921-54.118 123.167-81.162 201.841-81.162 51.876 0 99.789 12.36 143.729 37.14 43.95 24.74 78.684 58.378 104.212 100.915 25.6 42.516 38.328 88.924 38.328 139.244 0 27.156-3.973 53.309-11.981 78.438h80.855v-388.076zM859.812 656.242c0-11.561-4.045-21.35-12.052-29.348-7.936-8.008-17.736-12.012-29.348-12.012h-104.202c-11.53 0-21.34 4.004-29.348 12.012-8.008 7.987-11.981 17.777-11.981 29.348v98.816c0 11.192 3.973 20.89 11.981 29.041 8.008 8.182 17.818 12.278 29.348 12.278h104.202c11.612 0 21.412-4.096 29.348-12.278 8.008-8.151 12.052-17.848 12.052-29.041v-98.816z" />
</font>
</defs>
</svg>
